<svg t="1606817479033" class="icon" viewBox="0 0 1024 1024" version="1.1" xmlns="http://www.w3.org/2000/svg" p-id="3152" width="32" height="32"><path d="M512 426.666667C444.586667 426.666667 384 372.736 384 298.666667 384 231.253333 444.586667 170.666667 512 170.666667S640 224.597333 640 298.666667 579.413333 426.666667 512 426.666667z m0-188.586667a60.416 60.416 0 0 0-60.586667 60.586667c0 33.706667 26.88 60.586667 60.586667 60.586666 33.706667 0 60.586667-26.88 60.586667-60.586666a60.416 60.416 0 0 0-60.586667-60.586667z" fill="#467FFF" p-id="3153"></path><path d="M512 938.666667c-13.653333 0-20.394667-7.424-27.136-14.762667C423.765333 835.157333 213.333333 539.562667 213.333333 339.968 213.333333 155.306667 349.013333 0 512 0S810.666667 155.221333 810.666667 339.968c0 199.594667-210.432 502.613333-271.530667 583.936-6.826667 7.338667-20.309333 14.762667-27.136 14.762667zM512 73.898667c-128.938667 0-230.826667 118.272-230.826667 266.069333 0 133.12 115.456 340.053333 230.826667 502.613333 115.370667-162.56 230.826667-369.493333 230.826667-502.613333C742.826667 192.170667 640.853333 73.898667 512 73.898667z" fill="#467FFF" p-id="3154"></path><path d="M946.773333 1024H75.52c-13.824 0-20.736-7.253333-27.648-14.506667-6.912-7.168-6.912-21.674667 0-28.842666l89.856-354.389334c0-21.674667 13.824-28.928 27.648-28.928h89.941333c20.736 0 34.56 14.506667 34.56 36.181334s-13.824 36.096-34.56 36.096h-62.293333l-69.12 282.112h774.485333l-69.12-282.112h-62.293333c-20.736 0-34.56-14.421333-34.56-36.096 0-21.76 13.824-36.181333 34.56-36.181334h89.856c13.824 0 27.733333 14.506667 34.645333 28.928L981.333333 980.650667c0 7.168 0 21.674667-6.912 28.928-6.912 7.168-20.736 14.421333-27.648 14.421333z" fill="#467FFF" p-id="3155"></path></svg>