<svg t="1605942773993" class="icon" viewBox="0 0 1024 1024" version="1.1" xmlns="http://www.w3.org/2000/svg" p-id="4972" width="32" height="32"><path d="M1013.34528 415.77472c-5.59104-29.21472-23.05024-48.04096-44.3904-47.47264h-4.33664c-73.26208 0-132.82816-59.56608-132.82816-132.82816 0-24.192 11.52512-50.55488 11.52512-50.78016 11.29984-25.4464 2.62656-56.71424-20.1984-72.69376l-1.2544-0.79872-127.81056-70.97856-1.2544-0.56832c-7.53152-3.30752-15.86176-4.90496-24.64768-4.90496-18.25792 0-36.06016 7.30112-47.69792 19.39968-15.63136 16.09216-64.8192 57.96864-104.52992 57.96864-40.05376 0-89.57952-42.68032-105.216-58.99776-11.75552-12.43648-29.6704-19.74272-48.15872-19.74272-8.67328 0-16.77312 1.59744-24.192 4.79232l-1.59744 0.45568-132.25984 72.68864-1.2544 0.91136c-22.9376 15.9744-31.72352 47.1296-20.4288 72.576 0.11264 0.2304 11.52512 26.81856 11.52512 50.89792 0 73.26208-59.56608 132.82816-132.82816 132.82816h-4.44928c-21.34016-0.56832-38.79936 18.25792-44.3904 47.47264C12.21632 418.39616 1.9456 473.16992 1.9456 516.19328c0 43.136 10.27072 97.90976 10.7264 100.19328 5.4784 28.87168 22.48192 47.58528 43.59168 47.58528h5.248c73.26208 0 132.82816 59.56608 132.82816 132.82816 0 24.192-11.52512 50.55488-11.52512 50.78016-11.29984 25.4464-2.62656 56.71424 20.1984 72.69376l1.2544 0.79872 125.4144 70.17984 1.2544 0.56832c7.53152 3.30752 15.74912 5.02272 24.64768 5.02272 18.37056 0 36.4032-7.53152 48.04096-20.1984 14.72-15.9744 65.8432-61.62432 106.81344-61.62432 41.30816 0 91.63264 45.30176 107.4944 62.76096 11.63776 12.89728 29.78304 20.54144 48.27136 20.54144 8.67328 0 16.66048-1.59744 24.192-4.79232l1.36704-0.56832 129.75104-72.23296 1.2544-0.91136c22.82496-15.9744 31.61088-47.24224 20.31104-72.576-0.11264-0.2304-11.52512-26.81856-11.52512-50.89792 0-73.26208 59.56608-132.82816 132.82816-132.82816h4.44928c21.34016 0.45568 38.79936-18.25792 44.3904-47.47264 0.45568-2.28352 10.7264-57.05728 10.7264-100.19328 0.01024-43.01824-10.14272-97.792-10.60352-100.07552zM510.6688 692.2752c-97.56672 0-176.99328-79.42656-176.99328-176.99328S413.10208 338.28864 510.6688 338.28864s176.99328 79.42656 176.99328 176.99328-79.42656 176.99328-176.99328 176.99328z" fill="#A3A3A3" p-id="4973"></path><path d="M509.19936 411.29984c-56.40192 0-102.4 45.9008-102.4 102.4 0 56.40192 45.9008 102.4 102.4 102.4 56.40192 0 102.4-45.9008 102.4-102.4-0.09728-56.4992-45.9008-102.4-102.4-102.4z" fill="#A3A3A3" p-id="4974"></path></svg>