<svg t="1605942584029" class="icon" viewBox="0 0 1024 1024" version="1.1" xmlns="http://www.w3.org/2000/svg" p-id="3070" width="32" height="32"><path d="M909.64467 526.72758a21.225042 21.225042 0 0 0-8.230118-3.898477 327.038917 327.038917 0 0 0-216.582065 16.460237 178.463621 178.463621 0 0 0-10.395939-93.996616H899.248731l3.465313-2.16582 2.598985-2.598985 4.331641-7.36379v-3.032149a20.791878 20.791878 0 0 0 0-5.631134 20.791878 20.791878 0 0 0 0-3.465313 411.939086 411.939086 0 0 0-802.65313 0 20.358714 20.358714 0 0 0 0 3.465313 20.791878 20.791878 0 0 0 0 6.064298V433.164129a20.791878 20.791878 0 0 0 3.032149 4.331641l2.16582 2.165821 3.898477 2.598984H346.531303a178.463621 178.463621 0 0 0-9.962775 96.162437 327.038917 327.038917 0 0 0-216.582064-17.759729h-6.930626l-2.598985 2.16582-3.465313 3.465313v2.165821a20.791878 20.791878 0 0 0-2.165821 5.197969 16042.666667 16042.666667 0 0 0 0 6.930626 412.37225 412.37225 0 0 0 337.434856 370.788495h3.898477a21.658206 21.658206 0 0 0 21.225043-17.75973 512.866328 512.866328 0 0 0-16.460237-222.213198 173.265651 173.265651 0 0 0 129.949238 0 515.898477 515.898477 0 0 0-17.759729 228.277496 21.658206 21.658206 0 0 0 2.598985 6.497462 21.658206 21.658206 0 0 0 18.626057 10.829103h3.898478a412.805415 412.805415 0 0 0 336.135363-369.489001 21.658206 21.658206 0 0 0-14.72758-20.791879zM160.270728 401.976311a368.622673 368.622673 0 0 1 703.458544 0H649.746193a173.265651 173.265651 0 0 0-12.56176-15.593908 178.030457 178.030457 0 0 0-251.668359 0 173.265651 173.265651 0 0 0-12.561759 15.593908zM147.275804 563.113367c91.830795-14.72758 162.003384 0 208.351946 43.316413 76.236887 73.637902 73.204738 209.218274 68.439932 262.497462A368.622673 368.622673 0 0 1 147.275804 563.113367z m269.861252 43.316413a134.714044 134.714044 0 1 1 95.296108 39.417936A134.714044 134.714044 0 0 1 416.703892 606.42978z m184.094754 262.497462c-5.19797-53.279188-9.962775-189.292724 65.840948-262.930626 46.348562-43.316413 117.387479-59.77665 210.084602-43.316413a369.055838 369.055838 0 0 1-275.92555 307.113367z" fill="#A3A3A3" p-id="3071"></path><path d="M512 0a512 512 0 1 0 512 512A512.433164 512.433164 0 0 0 512 0z m0 980.683587a468.683587 468.683587 0 1 1 468.683587-468.683587 469.116751 469.116751 0 0 1-468.683587 468.683587z" fill="#A3A3A3" p-id="3072"></path></svg>